<svg xmlns="http://www.w3.org/2000/svg" viewBox="0 0 1296 832">
  <defs>
    <symbol id="s" viewBox="0 0 24 24">
      <path d="M12,2 L14.5,9 L22,9 L16,13.5 L18,21 L12,16.5 L6,21 L8,13.5 L2,9 L9.5,9Z" fill="white"/>
    </symbol>
  </defs>
  <rect width="1296" height="832" rx="20" fill="#FAF5FF"/>
  <rect x="20" y="20" width="1256" height="792" rx="14" fill="none" stroke="#D4A0E8" stroke-opacity="0.2" stroke-width="2"/>
  <!-- Sparkle decorations -->
  <g fill="#FFB8D0" opacity="0.15">
    <circle cx="120" cy="100" r="4"/><circle cx="1180" cy="90" r="3"/><circle cx="100" cy="700" r="3.5"/>
    <circle cx="1190" cy="720" r="4"/><circle cx="648" cy="50" r="2.5"/>
  </g>
  <text x="648" y="56" text-anchor="middle" fill="#9B7EC8" font-family="sans-serif" font-size="34" font-weight="700" letter-spacing="3">DESSERT STAMP</text>
  <text x="648" y="88" text-anchor="middle" fill="#9B7EC8" font-family="sans-serif" font-size="18" opacity="0.7">8개 모으면 디저트 1개 무료</text>
  <!-- Row 0: filled -->
  <circle cx="267" cy="290" r="54" fill="#E0A8D0"/><use href="#s" x="250" y="273" width="34" height="34"/>
  <circle cx="521" cy="290" r="54" fill="#E0A8D0"/><use href="#s" x="504" y="273" width="34" height="34"/>
  <circle cx="775" cy="290" r="54" fill="#E0A8D0"/><use href="#s" x="758" y="273" width="34" height="34"/>
  <circle cx="1029" cy="290" r="54" fill="#E0A8D0"/><use href="#s" x="1012" y="273" width="34" height="34"/>
  <!-- Row 1: filled + reward -->
  <circle cx="267" cy="540" r="54" fill="#E0A8D0"/><use href="#s" x="250" y="523" width="34" height="34"/>
  <circle cx="521" cy="540" r="54" fill="#E0A8D0"/><use href="#s" x="504" y="523" width="34" height="34"/>
  <circle cx="775" cy="540" r="54" fill="#E0A8D0"/><use href="#s" x="758" y="523" width="34" height="34"/>
  <!-- Reward -->
  <circle cx="1029" cy="540" r="54" fill="#9B7EC8"/>
  <text x="1029" y="536" text-anchor="middle" fill="white" font-family="sans-serif" font-size="14" font-weight="700">무료</text>
  <text x="1029" y="554" text-anchor="middle" fill="white" font-family="sans-serif" font-size="14" font-weight="700">디저트</text>
  <text x="648" y="755" text-anchor="middle" fill="#9B7EC8" font-family="sans-serif" font-size="18" opacity="0.55">8개 적립 시 디저트 1개를 무료로 드려요</text>
</svg>
