<svg xmlns="http://www.w3.org/2000/svg" viewBox="0 0 1296 832">
  <defs>
    <symbol id="s" viewBox="0 0 24 24">
      <circle cx="12" cy="13" r="7.5" fill="white"/>
      <line x1="12" y1="5.5" x2="12" y2="20.5" stroke="#E86A17" stroke-width="0.6" opacity="0.15"/>
      <line x1="4.5" y1="13" x2="19.5" y2="13" stroke="#E86A17" stroke-width="0.6" opacity="0.15"/>
      <path d="M10,5.5 Q12,3 14,5.5" fill="#66BB6A"/>
    </symbol>
  </defs>
  <rect width="1296" height="832" rx="20" fill="#FFF8F0"/>
  <rect x="20" y="20" width="1256" height="792" rx="14" fill="none" stroke="#E86A17" stroke-opacity="0.15" stroke-width="2"/>
  <!-- Bubble decorations -->
  <g fill="#E86A17" opacity="0.06">
    <circle cx="100" cy="120" r="20"/><circle cx="1200" cy="100" r="15"/><circle cx="80" cy="700" r="18"/><circle cx="1220" cy="720" r="22"/>
  </g>
  <text x="648" y="56" text-anchor="middle" fill="#E86A17" font-family="sans-serif" font-size="34" font-weight="700" letter-spacing="3">JUICE STAMP</text>
  <text x="648" y="88" text-anchor="middle" fill="#E86A17" font-family="sans-serif" font-size="18" opacity="0.7">12잔 모으면 주스 1잔 무료</text>
  <!-- Row 0: 1 filled + 3 empty -->
  <circle cx="267" cy="227" r="48" fill="#E86A17"/><use href="#s" x="252" y="212" width="30" height="30"/>
  <circle cx="521" cy="227" r="48" fill="none" stroke="#E86A17" stroke-opacity="0.25" stroke-width="2" stroke-dasharray="8 5"/>
  <circle cx="775" cy="227" r="48" fill="none" stroke="#E86A17" stroke-opacity="0.25" stroke-width="2" stroke-dasharray="8 5"/>
  <circle cx="1029" cy="227" r="48" fill="none" stroke="#E86A17" stroke-opacity="0.25" stroke-width="2" stroke-dasharray="8 5"/>
  <!-- Row 1: all empty -->
  <circle cx="267" cy="420" r="48" fill="none" stroke="#E86A17" stroke-opacity="0.25" stroke-width="2" stroke-dasharray="8 5"/>
  <circle cx="521" cy="420" r="48" fill="none" stroke="#E86A17" stroke-opacity="0.25" stroke-width="2" stroke-dasharray="8 5"/>
  <circle cx="775" cy="420" r="48" fill="none" stroke="#E86A17" stroke-opacity="0.25" stroke-width="2" stroke-dasharray="8 5"/>
  <circle cx="1029" cy="420" r="48" fill="none" stroke="#E86A17" stroke-opacity="0.25" stroke-width="2" stroke-dasharray="8 5"/>
  <!-- Row 2: all empty + reward -->
  <circle cx="267" cy="613" r="48" fill="none" stroke="#E86A17" stroke-opacity="0.25" stroke-width="2" stroke-dasharray="8 5"/>
  <circle cx="521" cy="613" r="48" fill="none" stroke="#E86A17" stroke-opacity="0.25" stroke-width="2" stroke-dasharray="8 5"/>
  <circle cx="775" cy="613" r="48" fill="none" stroke="#E86A17" stroke-opacity="0.25" stroke-width="2" stroke-dasharray="8 5"/>
  <circle cx="1029" cy="613" r="48" fill="#C45510"/>
  <text x="1029" y="619" text-anchor="middle" fill="white" font-family="sans-serif" font-size="16" font-weight="700">FREE</text>
  <text x="648" y="760" text-anchor="middle" fill="#E86A17" font-family="sans-serif" font-size="18" opacity="0.55">도장 12칸을 채우면 주스 1잔을 무료로 드려요</text>
</svg>
