<svg xmlns="http://www.w3.org/2000/svg" viewBox="0 0 1296 832">
  <defs>
    <symbol id="s" viewBox="0 0 24 24">
      <path d="M5,9 L5,18 Q5,20 7,20 L15,20 Q17,20 17,18 L17,9" fill="none" stroke="white" stroke-width="1.6" stroke-linejoin="round" stroke-linecap="round"/>
      <path d="M17,12 Q20,12 20,15 Q20,18 17,17" fill="none" stroke="white" stroke-width="1.5" stroke-linecap="round"/>
      <path d="M9,7 Q10,4 11,7" fill="none" stroke="white" stroke-width="1.3" stroke-linecap="round"/>
      <path d="M13,6 Q14,3 15,6" fill="none" stroke="white" stroke-width="1.3" stroke-linecap="round"/>
    </symbol>
  </defs>
  <rect width="1296" height="832" rx="20" fill="#F0F9FC"/>
  <rect x="20" y="20" width="1256" height="792" rx="14" fill="none" stroke="#4A9BB5" stroke-opacity="0.15" stroke-width="2"/>
  <!-- Wave decoration at bottom -->
  <g fill="none" stroke="#4A9BB5" stroke-width="1.5" opacity="0.08">
    <path d="M0,790 Q160,770 320,790 T640,790 T960,790 T1296,790"/>
    <path d="M0,808 Q160,788 320,808 T640,808 T960,808 T1296,808"/>
  </g>
  <text x="648" y="56" text-anchor="middle" fill="#1A6B8A" font-family="sans-serif" font-size="34" font-weight="700" letter-spacing="3">COFFEE STAMP</text>
  <text x="648" y="88" text-anchor="middle" fill="#1A6B8A" font-family="sans-serif" font-size="18" opacity="0.7">10잔 마시면 아메리카노 1잔 무료</text>
  <!-- Row 0: all filled -->
  <circle cx="210" cy="290" r="46" fill="#4A9BB5"/><use href="#s" x="196" y="276" width="28" height="28"/>
  <circle cx="429" cy="290" r="46" fill="#4A9BB5"/><use href="#s" x="415" y="276" width="28" height="28"/>
  <circle cx="648" cy="290" r="46" fill="#4A9BB5"/><use href="#s" x="634" y="276" width="28" height="28"/>
  <circle cx="867" cy="290" r="46" fill="#4A9BB5"/><use href="#s" x="853" y="276" width="28" height="28"/>
  <circle cx="1086" cy="290" r="46" fill="#4A9BB5"/><use href="#s" x="1072" y="276" width="28" height="28"/>
  <!-- Row 1: 1 filled + 3 empty + reward -->
  <circle cx="210" cy="540" r="46" fill="#4A9BB5"/><use href="#s" x="196" y="526" width="28" height="28"/>
  <circle cx="429" cy="540" r="46" fill="none" stroke="#4A9BB5" stroke-opacity="0.3" stroke-width="2" stroke-dasharray="8 5"/>
  <circle cx="648" cy="540" r="46" fill="none" stroke="#4A9BB5" stroke-opacity="0.3" stroke-width="2" stroke-dasharray="8 5"/>
  <circle cx="867" cy="540" r="46" fill="none" stroke="#4A9BB5" stroke-opacity="0.3" stroke-width="2" stroke-dasharray="8 5"/>
  <circle cx="1086" cy="540" r="46" fill="#1A6B8A"/>
  <text x="1086" y="546" text-anchor="middle" fill="white" font-family="sans-serif" font-size="16" font-weight="700">FREE</text>
  <text x="648" y="755" text-anchor="middle" fill="#1A6B8A" font-family="sans-serif" font-size="18" opacity="0.55">도장 10칸을 채우면 아메리카노 1잔 무료</text>
</svg>
