<svg xmlns="http://www.w3.org/2000/svg" viewBox="0 0 1296 832">
  <defs>
    <symbol id="s" viewBox="0 0 24 24">
      <path d="M5,9 L5,18 Q5,20 7,20 L15,20 Q17,20 17,18 L17,9" fill="none" stroke="white" stroke-width="1.6" stroke-linejoin="round" stroke-linecap="round"/>
      <path d="M17,12 Q20,12 20,15 Q20,18 17,17" fill="none" stroke="white" stroke-width="1.5" stroke-linecap="round"/>
      <path d="M9,7 Q10,4 11,7" fill="none" stroke="white" stroke-width="1.3" stroke-linecap="round"/>
      <path d="M13,6 Q14,3 15,6" fill="none" stroke="white" stroke-width="1.3" stroke-linecap="round"/>
    </symbol>
  </defs>
  <rect width="1296" height="832" rx="20" fill="#FFF8ED"/>
  <rect x="20" y="20" width="1256" height="792" rx="14" fill="none" stroke="#C9A96E" stroke-opacity="0.2" stroke-width="2"/>
  <text x="648" y="56" text-anchor="middle" fill="#C9A96E" font-family="sans-serif" font-size="34" font-weight="700" letter-spacing="4">COUPON STAMP</text>
  <text x="648" y="88" text-anchor="middle" fill="#C9A96E" font-family="sans-serif" font-size="18" opacity="0.7">12잔 마시면 1잔 무료</text>
  <!-- Row 0: filled -->
  <circle cx="267" cy="227" r="48" fill="#C9A96E"/><use href="#s" x="252" y="212" width="30" height="30"/>
  <circle cx="521" cy="227" r="48" fill="#C9A96E"/><use href="#s" x="506" y="212" width="30" height="30"/>
  <circle cx="775" cy="227" r="48" fill="#C9A96E"/><use href="#s" x="760" y="212" width="30" height="30"/>
  <circle cx="1029" cy="227" r="48" fill="#C9A96E"/><use href="#s" x="1014" y="212" width="30" height="30"/>
  <!-- Row 1: filled -->
  <circle cx="267" cy="420" r="48" fill="#C9A96E"/><use href="#s" x="252" y="405" width="30" height="30"/>
  <circle cx="521" cy="420" r="48" fill="#C9A96E"/><use href="#s" x="506" y="405" width="30" height="30"/>
  <circle cx="775" cy="420" r="48" fill="#C9A96E"/><use href="#s" x="760" y="405" width="30" height="30"/>
  <circle cx="1029" cy="420" r="48" fill="#C9A96E"/><use href="#s" x="1014" y="405" width="30" height="30"/>
  <!-- Row 2: empty + reward -->
  <circle cx="267" cy="613" r="48" fill="none" stroke="#C9A96E" stroke-opacity="0.3" stroke-width="2" stroke-dasharray="8 5"/>
  <circle cx="521" cy="613" r="48" fill="none" stroke="#C9A96E" stroke-opacity="0.3" stroke-width="2" stroke-dasharray="8 5"/>
  <circle cx="775" cy="613" r="48" fill="none" stroke="#C9A96E" stroke-opacity="0.3" stroke-width="2" stroke-dasharray="8 5"/>
  <circle cx="1029" cy="613" r="48" fill="#8A6D3B"/>
  <text x="1029" y="619" text-anchor="middle" fill="white" font-family="sans-serif" font-size="16" font-weight="700">FREE</text>
  <text x="648" y="760" text-anchor="middle" fill="#C9A96E" font-family="sans-serif" font-size="18" opacity="0.6">도장 12칸을 채우면 음료 1잔을 무료로 드려요</text>
</svg>
