<svg xmlns="http://www.w3.org/2000/svg" viewBox="0 0 1296 832">
  <defs>
    <symbol id="s" viewBox="0 0 24 24">
      <path d="M12,3 L19,12 L12,21 L5,12Z" fill="white"/>
      <path d="M8,9 L12,21 L16,9" fill="none" stroke="#FFD700" stroke-width="0.5" opacity="0.2"/>
    </symbol>
  </defs>
  <rect width="1296" height="832" rx="20" fill="#1A1A2E"/>
  <rect x="20" y="20" width="1256" height="792" rx="14" fill="none" stroke="#FFD700" stroke-opacity="0.15" stroke-width="2"/>
  <!-- Subtle star accents -->
  <g fill="#FFD700" opacity="0.1">
    <circle cx="100" cy="80" r="2"/><circle cx="1200" cy="70" r="1.5"/><circle cx="80" cy="750" r="1.8"/>
    <circle cx="1220" cy="760" r="2"/><circle cx="300" cy="50" r="1.2"/><circle cx="1000" cy="780" r="1.5"/>
  </g>
  <text x="648" y="56" text-anchor="middle" fill="#FFD700" font-family="sans-serif" font-size="34" font-weight="700" letter-spacing="4">VIP STAMP</text>
  <text x="648" y="88" text-anchor="middle" fill="#FFD700" font-family="sans-serif" font-size="18" opacity="0.6">10잔 적립 시 음료 1잔 무료</text>
  <!-- Row 0: all filled -->
  <circle cx="210" cy="290" r="46" fill="#FFD700"/><use href="#s" x="196" y="276" width="28" height="28"/>
  <circle cx="429" cy="290" r="46" fill="#FFD700"/><use href="#s" x="415" y="276" width="28" height="28"/>
  <circle cx="648" cy="290" r="46" fill="#FFD700"/><use href="#s" x="634" y="276" width="28" height="28"/>
  <circle cx="867" cy="290" r="46" fill="#FFD700"/><use href="#s" x="853" y="276" width="28" height="28"/>
  <circle cx="1086" cy="290" r="46" fill="#FFD700"/><use href="#s" x="1072" y="276" width="28" height="28"/>
  <!-- Row 1: 4 filled + reward -->
  <circle cx="210" cy="540" r="46" fill="#FFD700"/><use href="#s" x="196" y="526" width="28" height="28"/>
  <circle cx="429" cy="540" r="46" fill="#FFD700"/><use href="#s" x="415" y="526" width="28" height="28"/>
  <circle cx="648" cy="540" r="46" fill="#FFD700"/><use href="#s" x="634" y="526" width="28" height="28"/>
  <circle cx="867" cy="540" r="46" fill="#FFD700"/><use href="#s" x="853" y="526" width="28" height="28"/>
  <!-- Reward -->
  <circle cx="1086" cy="540" r="46" fill="#B8960B"/>
  <text x="1086" y="546" text-anchor="middle" fill="white" font-family="sans-serif" font-size="16" font-weight="700">FREE</text>
  <text x="648" y="755" text-anchor="middle" fill="#FFD700" font-family="sans-serif" font-size="18" opacity="0.5">10잔 적립 시 음료 1잔을 무료로 드려요</text>
</svg>
