<svg xmlns="http://www.w3.org/2000/svg" viewBox="0 0 1296 832">
  <defs>
    <symbol id="s" viewBox="0 0 24 24">
      <path d="M4,10 L4,18 Q4,21 7,21 L15,21 Q18,21 18,18 L18,10" fill="none" stroke="white" stroke-width="1.5" stroke-linejoin="round" stroke-linecap="round"/>
      <path d="M18,13 Q21,13 21,15.5 Q21,18 18,17" fill="none" stroke="white" stroke-width="1.5" stroke-linecap="round"/>
      <path d="M8,8 Q9,5 10,8" fill="none" stroke="white" stroke-width="1.2" stroke-linecap="round"/>
      <path d="M12,7 Q13,3 14,7" fill="none" stroke="white" stroke-width="1.2" stroke-linecap="round"/>
    </symbol>
  </defs>
  <rect width="1296" height="832" rx="20" fill="#F5F9F0"/>
  <rect x="20" y="20" width="1256" height="792" rx="14" fill="none" stroke="#5A9E3C" stroke-opacity="0.15" stroke-width="2"/>
  <!-- Leaf decorations (like 카페나무) -->
  <g stroke="#5A9E3C" fill="none" stroke-width="1.8" stroke-linecap="round" opacity="0.15">
    <path d="M60,50 Q70,120 50,200 M55,100 Q30,80 25,60 Q35,55 55,100 M52,140 Q28,125 22,100 Q32,98 52,140"/>
    <path d="M1236,780 Q1226,710 1246,630 M1241,730 Q1266,748 1271,770 Q1261,775 1241,730 M1244,690 Q1268,705 1274,730 Q1264,732 1244,690"/>
  </g>
  <text x="648" y="55" text-anchor="middle" fill="#2D6B3F" font-family="sans-serif" font-size="30" font-weight="700">초록잎 티하우스 커피쿠폰</text>
  <text x="648" y="88" text-anchor="middle" fill="#5A9E3C" font-family="sans-serif" font-size="18" opacity="0.7">9잔 적립 시 차 한 잔 무료</text>
  <!-- All filled (8) + reward -->
  <circle cx="323" cy="227" r="52" fill="#8BBF6A"/><use href="#s" x="307" y="211" width="32" height="32"/>
  <circle cx="648" cy="227" r="52" fill="#8BBF6A"/><use href="#s" x="632" y="211" width="32" height="32"/>
  <circle cx="973" cy="227" r="52" fill="#8BBF6A"/><use href="#s" x="957" y="211" width="32" height="32"/>
  <circle cx="323" cy="420" r="52" fill="#8BBF6A"/><use href="#s" x="307" y="404" width="32" height="32"/>
  <circle cx="648" cy="420" r="52" fill="#8BBF6A"/><use href="#s" x="632" y="404" width="32" height="32"/>
  <circle cx="973" cy="420" r="52" fill="#8BBF6A"/><use href="#s" x="957" y="404" width="32" height="32"/>
  <circle cx="323" cy="613" r="52" fill="#8BBF6A"/><use href="#s" x="307" y="597" width="32" height="32"/>
  <circle cx="648" cy="613" r="52" fill="#8BBF6A"/><use href="#s" x="632" y="597" width="32" height="32"/>
  <!-- Reward -->
  <circle cx="973" cy="613" r="52" fill="#2D6B3F"/>
  <text x="973" y="610" text-anchor="middle" fill="white" font-family="sans-serif" font-size="14" font-weight="700">무료</text>
  <text x="973" y="628" text-anchor="middle" fill="white" font-family="sans-serif" font-size="14" font-weight="700">음료</text>
  <text x="648" y="760" text-anchor="middle" fill="#2D6B3F" font-family="sans-serif" font-size="18" opacity="0.55">9잔 마시면 차 한 잔을 무료로 드려요</text>
</svg>
