<svg xmlns="http://www.w3.org/2000/svg" viewBox="0 0 1296 832">
  <defs>
    <symbol id="s" viewBox="0 0 24 24">
      <path d="M5,19 Q5,10 9,7 Q12,5 15,7 Q19,10 19,19Z" fill="white" opacity="0.95"/>
      <path d="M9,14 L10,9" stroke="#D4956A" stroke-width="0.8" opacity="0.2" stroke-linecap="round"/>
      <path d="M14,13 L15,8" stroke="#D4956A" stroke-width="0.8" opacity="0.2" stroke-linecap="round"/>
    </symbol>
  </defs>
  <rect width="1296" height="832" rx="20" fill="#FFFAF5"/>
  <rect x="20" y="20" width="1256" height="792" rx="14" fill="none" stroke="#D4956A" stroke-opacity="0.2" stroke-width="2"/>
  <!-- COUPON badge -->
  <rect x="548" y="22" width="200" height="48" rx="24" fill="#8B5E3C"/>
  <text x="648" y="52" text-anchor="middle" fill="white" font-family="sans-serif" font-size="20" font-weight="700" letter-spacing="3">COUPON</text>
  <text x="648" y="100" text-anchor="middle" fill="#8B5E3C" font-family="sans-serif" font-size="18" opacity="0.7">10개 모으면 빵 1개 무료</text>
  <!-- Row 0: filled -->
  <circle cx="210" cy="290" r="46" fill="#D4956A"/><use href="#s" x="196" y="276" width="28" height="28"/>
  <circle cx="429" cy="290" r="46" fill="#D4956A"/><use href="#s" x="415" y="276" width="28" height="28"/>
  <circle cx="648" cy="290" r="46" fill="#D4956A"/><use href="#s" x="634" y="276" width="28" height="28"/>
  <circle cx="867" cy="290" r="46" fill="#D4956A"/><use href="#s" x="853" y="276" width="28" height="28"/>
  <circle cx="1086" cy="290" r="46" fill="#D4956A"/><use href="#s" x="1072" y="276" width="28" height="28"/>
  <!-- Row 1: empty + reward -->
  <circle cx="210" cy="540" r="46" fill="none" stroke="#D4956A" stroke-opacity="0.3" stroke-width="2" stroke-dasharray="8 5"/>
  <circle cx="429" cy="540" r="46" fill="none" stroke="#D4956A" stroke-opacity="0.3" stroke-width="2" stroke-dasharray="8 5"/>
  <circle cx="648" cy="540" r="46" fill="none" stroke="#D4956A" stroke-opacity="0.3" stroke-width="2" stroke-dasharray="8 5"/>
  <circle cx="867" cy="540" r="46" fill="none" stroke="#D4956A" stroke-opacity="0.3" stroke-width="2" stroke-dasharray="8 5"/>
  <circle cx="1086" cy="540" r="46" fill="#8B5E3C"/>
  <text x="1086" y="546" text-anchor="middle" fill="white" font-family="sans-serif" font-size="16" font-weight="700">FREE</text>
  <text x="648" y="755" text-anchor="middle" fill="#8B5E3C" font-family="sans-serif" font-size="18" opacity="0.6">도장 10칸을 채우면 빵 1개를 무료로 드려요</text>
</svg>
